<svg width="291" height="217" viewBox="0 0 291 217" fill="none" xmlns="http://www.w3.org/2000/svg">
<g clip-path="url(#clip0_1054_1124)">
<path d="M291 190.7H0V190.846H291V190.7Z" fill="#EBEBEB"/>
<path d="M137.94 164.726H25.5556C23.7223 164.726 22.2324 163.235 22.2324 161.4V3.32538C22.2324 1.49089 23.7223 0 25.5556 0H137.94C139.773 0 141.263 1.49089 141.263 3.32538V161.4C141.263 163.235 139.773 164.726 137.94 164.726ZM25.5556 0.145595C23.8038 0.145595 22.3779 1.57242 22.3779 3.32538V161.4C22.3779 163.153 23.8038 164.58 25.5556 164.58H137.94C139.692 164.58 141.118 163.153 141.118 161.4V3.32538C141.118 1.57242 139.692 0.145595 137.94 0.145595H25.5556Z" fill="#EBEBEB"/>
<path d="M263.827 164.726H151.442C149.609 164.726 148.119 163.235 148.119 161.4V3.32538C148.119 1.49089 149.609 0 151.442 0H263.827C265.66 0 267.15 1.49089 267.15 3.32538V161.4C267.15 163.235 265.66 164.726 263.827 164.726ZM151.442 0.145595C149.691 0.145595 148.265 1.57242 148.265 3.32538V161.4C148.265 163.153 149.691 164.58 151.442 164.58H263.827C265.578 164.58 267.004 163.153 267.004 161.4V3.32538C267.004 1.57242 265.578 0.145595 263.827 0.145595H151.442Z" fill="#EBEBEB"/>
<path d="M261.842 200.07H246.71V200.216H261.842V200.07Z" fill="#EBEBEB"/>
<path d="M207.209 201.654H181.002V201.8H207.209V201.654Z" fill="#EBEBEB"/>
<path d="M246.128 194.666H210.748V194.812H246.128V194.666Z" fill="#EBEBEB"/>
<path d="M41.7236 195.645H30.5317V195.79H41.7236V195.645Z" fill="#EBEBEB"/>
<path d="M79.088 195.645H46.9092V195.79H79.088V195.645Z" fill="#EBEBEB"/>
<path d="M142.09 198.102H98.748V198.247H142.09V198.102Z" fill="#EBEBEB"/>
<path d="M220.34 187.712H224.996V101.491H220.34V187.712Z" fill="#E6E8F5"/>
<path d="M197.997 190.688H223.773V187.713H197.997V190.688Z" fill="#E6E8F5"/>
<path d="M220.345 101.491H196.763V187.712H220.345V101.491Z" fill="#F5F5F5"/>
<path d="M217.831 146.387H199.277V161.785H217.831V146.387Z" fill="#E6E8F5"/>
<path d="M217.831 166.537H199.277V181.935H217.831V166.537Z" fill="#E6E8F5"/>
<path d="M206.081 155.14H211.022C211.401 155.14 211.708 154.832 211.708 154.452V153.713C211.708 153.333 211.401 153.026 211.022 153.026H206.081C205.701 153.026 205.394 153.333 205.394 153.713V154.452C205.394 154.832 205.701 155.14 206.081 155.14Z" fill="#F5F5F5"/>
<path d="M206.081 175.296H211.022C211.401 175.296 211.708 174.988 211.708 174.609V173.869C211.708 173.49 211.401 173.182 211.022 173.182H206.081C205.701 173.182 205.394 173.49 205.394 173.869V174.609C205.394 174.988 205.701 175.296 206.081 175.296Z" fill="#F5F5F5"/>
<path d="M217.831 106.243H199.277V121.641H217.831V106.243Z" fill="#E6E8F5"/>
<path d="M217.831 126.236H199.277V141.634H217.831V126.236Z" fill="#E6E8F5"/>
<path d="M206.081 115.002H211.022C211.401 115.002 211.708 114.694 211.708 114.315V113.575C211.708 113.196 211.401 112.888 211.022 112.888H206.081C205.701 112.888 205.394 113.196 205.394 113.575V114.315C205.394 114.694 205.701 115.002 206.081 115.002Z" fill="#F5F5F5"/>
<path d="M206.081 134.989H211.022C211.401 134.989 211.708 134.682 211.708 134.302V133.562C211.708 133.183 211.401 132.875 211.022 132.875H206.081C205.701 132.875 205.394 133.183 205.394 133.562V134.302C205.394 134.682 205.701 134.989 206.081 134.989Z" fill="#F5F5F5"/>
<path d="M246.151 187.712H260.119V101.491H246.151V187.712Z" fill="#E6E8F5"/>
<path d="M223.791 190.688H258.682V187.713H223.791V190.688Z" fill="#E6E8F5"/>
<path d="M246.151 101.491H222.568V187.712H246.151V101.491Z" fill="#F5F5F5"/>
<path d="M243.637 146.387H225.083V161.785H243.637V146.387Z" fill="#E6E8F5"/>
<path d="M243.637 166.537H225.083V181.935H243.637V166.537Z" fill="#E6E8F5"/>
<path d="M231.886 155.14H236.827C237.207 155.14 237.514 154.832 237.514 154.452V153.713C237.514 153.333 237.207 153.026 236.827 153.026H231.886C231.507 153.026 231.199 153.333 231.199 153.713V154.452C231.199 154.832 231.507 155.14 231.886 155.14Z" fill="#F5F5F5"/>
<path d="M231.886 175.296H236.827C237.207 175.296 237.514 174.988 237.514 174.609V173.869C237.514 173.49 237.207 173.182 236.827 173.182H231.886C231.507 173.182 231.199 173.49 231.199 173.869V174.609C231.199 174.988 231.507 175.296 231.886 175.296Z" fill="#F5F5F5"/>
<path d="M243.637 106.243H225.083V121.641H243.637V106.243Z" fill="#E6E8F5"/>
<path d="M243.637 126.236H225.083V141.634H243.637V126.236Z" fill="#E6E8F5"/>
<path d="M231.886 115.002H236.827C237.207 115.002 237.514 114.694 237.514 114.315V113.575C237.514 113.196 237.207 112.888 236.827 112.888H231.886C231.507 112.888 231.199 113.196 231.199 113.575V114.315C231.199 114.694 231.507 115.002 231.886 115.002Z" fill="#F5F5F5"/>
<path d="M231.886 134.989H236.827C237.207 134.989 237.514 134.682 237.514 134.302V133.562C237.514 133.183 237.207 132.875 236.827 132.875H231.886C231.507 132.875 231.199 133.183 231.199 133.562V134.302C231.199 134.682 231.507 134.989 231.886 134.989Z" fill="#F5F5F5"/>
<path d="M170.311 83.4893L248.712 83.4893V14.6172L170.311 14.6172V83.4893Z" fill="#E6E6E6"/>
<path d="M161.907 11.9443H253.787C254.218 11.9443 254.567 12.2938 254.567 12.7247C254.567 13.1557 254.218 13.5051 253.787 13.5051H161.907C161.476 13.5051 161.127 13.1557 161.127 12.7247C161.127 12.2938 161.476 11.9443 161.907 11.9443Z" fill="#E6E6E6"/>
<path d="M166.987 83.4893L247.164 83.4893V14.6172L166.987 14.6172V83.4893Z" fill="#E6E8F5"/>
<path d="M170.311 83.4951H248.712V85.7023H168.018L170.311 83.4951Z" fill="#E6E6E6"/>
<path d="M161.441 83.4951H241.617L239.324 85.7023H159.148L161.441 83.4951Z" fill="#E6E8F5"/>
<path d="M242.502 78.8304V19.2764L171.643 19.2764V78.8304H242.502Z" fill="#FAFAFA"/>
<path d="M226.416 78.8362L199.079 19.2822H186.176L213.513 78.8362H226.416Z" fill="white"/>
<path d="M210.737 78.8362L183.406 19.2822H178.372L205.708 78.8362H210.737Z" fill="white"/>
<path d="M172.231 78.8362V19.2822H171.638V78.8362H172.231Z" fill="#E6E6E6"/>
<g opacity="0.4">
<path d="M242.444 67.3867H250.458V10.5524H242.444V67.3867Z" fill="#E6E8F5"/>
<path d="M239.324 67.3867H245.569V10.5524H239.324V67.3867Z" fill="#E6E6E6"/>
<path d="M234.436 67.3867H242.45V10.5524H234.436V67.3867Z" fill="#E6E8F5"/>
<path d="M231.31 67.3867H237.555V10.5524H231.31V67.3867Z" fill="#E6E6E6"/>
<path d="M226.416 67.3867H234.43V10.5524H226.416V67.3867Z" fill="#E6E8F5"/>
</g>
<g opacity="0.4">
<path d="M174.624 67.3867H179.245V10.5524H174.624V67.3867Z" fill="#E6E8F5"/>
<path d="M172.825 67.3867H176.422V10.5524H172.825V67.3867Z" fill="#E6E6E6"/>
<path d="M170.002 67.3867H174.624V10.5524H170.002V67.3867Z" fill="#E6E8F5"/>
<path d="M168.21 67.3867H171.807V10.5524H168.21V67.3867Z" fill="#E6E6E6"/>
<path d="M165.381 67.3867H170.002V10.5524H165.381V67.3867Z" fill="#E6E8F5"/>
</g>
<path d="M95.5762 56.3397H106.669L105.36 28.1875H95.5762V56.3397Z" fill="#F5F5F5"/>
<path d="M112.937 57.8652L115.329 70.3689H112.937L98.2588 57.8652H112.937Z" fill="#F5F5F5"/>
<path d="M115.329 57.8652V70.3689L100.657 57.8652H115.329Z" fill="#E6E6E6"/>
<path d="M55.3949 57.8652L57.7869 70.3689H55.3949L40.7227 57.8652H55.3949Z" fill="#F5F5F5"/>
<path d="M57.787 57.8652V70.3689L43.1147 57.8652H57.787Z" fill="#E6E6E6"/>
<path d="M126.102 56.3857H110.144V58.1911H126.102V56.3857Z" fill="#E6E6E6"/>
<path d="M30.8053 58.1855L110.144 58.1855V56.3802L30.8053 56.3802V58.1855Z" fill="#F5F5F5"/>
<path d="M79.2744 56.3394H103.09L106.035 22.2295H82.2193L79.2744 56.3394Z" fill="#E6E6E6"/>
<path d="M78.0405 56.3394H101.856L104.801 22.2295H80.9854L78.0405 56.3394Z" fill="#E6E8F5"/>
<path d="M99.8598 52.5652L102.554 26.0029H82.9876L80.293 52.5652H99.8598Z" fill="white"/>
<path d="M68.6118 56.3396H76.2535L75.3514 36.958H68.6118V56.3396Z" fill="#E0E0E0"/>
<path d="M57.3906 56.3399H73.7856L75.8167 32.8525H59.416L57.3906 56.3399Z" fill="#E6E8F5"/>
<path d="M56.541 56.3399H72.9418L74.9671 32.8525H58.5664L56.541 56.3399Z" fill="#F5F5F5"/>
<path d="M71.5627 53.7427L73.4192 35.4561H59.9459L58.0894 53.7427H71.5627Z" fill="#E0E0E0"/>
<path d="M152.693 105.695C152.845 107.512 151.494 109.108 149.679 109.254C147.863 109.399 146.268 108.054 146.123 106.237C145.977 104.42 147.322 102.824 149.137 102.679C150.953 102.527 152.548 103.878 152.693 105.695Z" fill="#E0E0E0"/>
<path d="M158.822 107.419C158.973 109.236 157.623 110.832 155.807 110.977C153.991 111.129 152.397 109.778 152.251 107.961C152.106 106.144 153.45 104.548 155.266 104.402C157.082 104.257 158.676 105.602 158.822 107.419Z" fill="#E0E0E0"/>
<path d="M163.251 105.451C163.402 107.268 162.052 108.864 160.236 109.009C158.42 109.161 156.826 107.81 156.68 105.993C156.529 104.176 157.879 102.58 159.695 102.434C161.511 102.283 163.105 103.634 163.251 105.451Z" fill="#E0E0E0"/>
<path d="M167.924 106.668C168.075 108.485 166.725 110.081 164.909 110.226C163.094 110.378 161.499 109.027 161.353 107.21C161.202 105.393 162.552 103.797 164.368 103.651C166.184 103.506 167.779 104.851 167.924 106.668Z" fill="#E0E0E0"/>
<path d="M172.12 107.204C172.12 107.204 171.736 116.371 157.017 116.371C142.299 116.371 141.915 107.204 141.915 107.204H172.115H172.12Z" fill="#E6E8F5"/>
<path d="M34.8502 190.693H40.1987L40.1987 116.364H34.8502L34.8502 190.693Z" fill="#E6E6E6"/>
<path d="M33.4241 190.693H36.5728L36.5728 116.364H33.4241L33.4241 190.693Z" fill="#E6E8F5"/>
<path d="M108.374 116.37H32.4463V121.943H108.374V116.37Z" fill="#E6E8F5"/>
<path d="M180.28 190.693H185.629V116.364H180.28V190.693Z" fill="#E6E6E6"/>
<path d="M179.279 190.693H182.428V116.364H179.279V190.693Z" fill="#E6E8F5"/>
<path d="M186.583 116.37H110.655V121.943H186.583V116.37Z" fill="#E6E6E6"/>
<path d="M108.822 190.693H114.171L114.171 116.364H108.822L108.822 190.693Z" fill="#E6E6E6"/>
<path d="M107.396 190.693H110.545L110.545 116.364H107.396L107.396 190.693Z" fill="#E6E8F5"/>
<path d="M126.375 91.6484H86.7349L79.6694 115.072H119.315L126.375 91.6484Z" fill="#E6E6E6"/>
<path d="M119.315 115.071L119.158 116.37H79.5063L79.6693 115.071H119.315Z" fill="#E6E6E6"/>
<path d="M125.159 91.6484H85.5128L78.4531 115.072H118.099L125.159 91.6484Z" fill="#E6E8F5"/>
<path d="M117.319 114L123.733 92.7197H86.2925L79.873 114H117.319Z" fill="white"/>
<path d="M107.768 115.071L107.606 116.37H63.9497L64.1068 115.071H107.768Z" fill="#E6E8F5"/>
<path d="M145.5 217C207.822 217 258.344 214.049 258.344 210.408C258.344 206.767 207.822 203.815 145.5 203.815C83.1782 203.815 32.6562 206.767 32.6562 210.408C32.6562 214.049 83.1782 217 145.5 217Z" fill="#F5F5F5"/>
<path d="M185.734 31.5654H118.752C114.073 31.5654 109.999 35.3975 109.696 40.0798L99.3016 200.56C98.9989 205.242 102.578 209.074 107.258 209.074H174.24C178.919 209.074 182.993 205.242 183.296 200.56L190.769 85.2141C191.403 84.9928 191.886 84.4046 191.933 83.7174L193.271 63.0779C193.318 62.3849 192.905 61.8025 192.305 61.5812L193.696 40.0798C193.999 35.3975 190.419 31.5654 185.74 31.5654H185.734Z" fill="#36DDCD"/>
<path d="M104.272 73.1184H105.581C106.414 73.1184 107.135 72.437 107.188 71.61L107.746 62.9966C107.799 62.1638 107.164 61.4883 106.332 61.4883H105.023C104.19 61.4883 103.469 62.1697 103.416 62.9966L102.858 71.61C102.805 72.4428 103.44 73.1184 104.272 73.1184Z" fill="#009688"/>
<path d="M103.277 88.4983H104.586C105.418 88.4983 106.14 87.8169 106.192 86.9899L106.751 78.3765C106.804 77.5437 106.169 76.8682 105.337 76.8682H104.027C103.195 76.8682 102.473 77.5495 102.421 78.3765L101.862 86.9899C101.81 87.8227 102.444 88.4983 103.277 88.4983Z" fill="#009688"/>
<path d="M170.678 209.068H103.695C99.0162 209.068 95.4369 205.236 95.7395 200.554L106.134 40.0739C106.437 35.3916 110.511 31.5596 115.19 31.5596H182.172C186.852 31.5596 190.431 35.3916 190.128 40.0739L179.734 200.554C179.431 205.236 175.357 209.068 170.678 209.068Z" fill="#009688"/>
<path opacity="0.2" d="M141.74 202.244C144.086 199.971 144.263 196.345 142.134 194.145C140.006 191.945 136.379 192.004 134.032 194.277C131.686 196.55 131.509 200.176 133.637 202.376C135.766 204.576 139.393 204.517 141.74 202.244Z" fill="white"/>
<path d="M176.731 188.231H100.582C99.4878 188.231 98.6206 187.305 98.6905 186.211L107.607 48.5829C107.671 47.587 108.497 46.8066 109.498 46.8066H185.647C186.741 46.8066 187.608 47.7326 187.539 48.8275L178.622 186.455C178.558 187.451 177.732 188.231 176.731 188.231Z" fill="white"/>
<path opacity="0.2" d="M155.492 133.991C164.009 125.741 164.65 112.578 156.923 104.591C149.197 96.6046 136.029 96.8185 127.512 105.069C118.994 113.319 118.353 126.482 126.08 134.469C133.806 142.455 146.974 142.242 155.492 133.991Z" fill="#92E3A9"/>
<path opacity="0.2" d="M139.419 151.599C121.743 151.599 108.293 137.209 109.44 119.522C110.586 101.835 125.899 87.4443 143.574 87.4443C161.249 87.4443 174.699 101.835 173.553 119.522C172.406 137.209 157.094 151.599 139.419 151.599ZM143.533 88.0267C126.178 88.0267 111.145 102.155 110.016 119.522C108.893 136.888 122.098 151.017 139.454 151.017C156.809 151.017 171.842 136.888 172.971 119.522C174.094 102.155 160.894 88.0267 143.539 88.0267H143.533Z" fill="#92E3A9"/>
<path d="M136.532 129.597L134.798 126.231C131.015 118.887 122.302 112.324 119.258 110.413L122.133 106.11C125.73 108.369 132.935 113.966 137.452 120.617C145.798 110.722 157.6 100.519 173.408 89.5176L176.102 93.5826C159.213 105.335 147.078 116.08 139 126.435L136.532 129.597Z" fill="#009688"/>
<path opacity="0.2" d="M135.707 40.7256C136.656 39.8062 136.726 38.3377 135.863 37.4457C135 36.5536 133.531 36.5759 132.581 37.4953C131.632 38.4148 131.562 39.8833 132.425 40.7753C133.288 41.6673 134.757 41.6451 135.707 40.7256Z" fill="white"/>
<path opacity="0.2" d="M142.294 36.7891H161.552C162.827 36.7891 163.804 37.8315 163.723 39.1069C163.641 40.3823 162.53 41.4248 161.255 41.4248H141.997C140.722 41.4248 139.745 40.3823 139.826 39.1069C139.908 37.8315 141.019 36.7891 142.294 36.7891Z" fill="white"/>
</g>
<defs>
<clipPath id="clip0_1054_1124">
<rect width="291" height="217" fill="white"/>
</clipPath>
</defs>
</svg>
