<svg width="48" height="60" viewBox="0 0 48 60" fill="none" xmlns="http://www.w3.org/2000/svg">
<g clip-path="url(#clip0_668_1920)">
<path d="M1.0791 58.0461H1.67512V59.9176H1.92771V58.0461H2.51709V57.808H1.0791V58.0461Z" fill="#231F20"/>
<path d="M4.38496 58.5535C4.28747 58.5535 4.20549 58.5779 4.13681 58.6269C4.06812 58.6759 4.00386 58.7582 3.94404 58.8717V58.598H3.74463V59.9176H3.9662V59.2745C3.9662 59.1009 3.995 58.9718 4.05483 58.8873C4.11465 58.8005 4.20328 58.7582 4.32292 58.7582C4.34287 58.7582 4.36502 58.7582 4.3894 58.7649C4.41155 58.7693 4.43592 58.776 4.46251 58.7849L4.53785 58.5824C4.51347 58.5735 4.4891 58.5668 4.46251 58.5624C4.43814 58.5579 4.41155 58.5557 4.38496 58.5557V58.5535Z" fill="#231F20"/>
<path d="M7.03709 58.845C6.98835 58.7471 6.92188 58.6737 6.84211 58.6247C6.76235 58.5758 6.66707 58.5513 6.55629 58.5513C6.36795 58.5513 6.2195 58.6158 6.1065 58.7427C5.99572 58.8717 5.93811 59.0431 5.93811 59.2612C5.93811 59.4792 5.99572 59.6484 6.11093 59.7774C6.22615 59.9065 6.37903 59.9733 6.56737 59.9733C6.66929 59.9733 6.76013 59.9488 6.84211 59.8976C6.92409 59.8464 6.99056 59.773 7.04374 59.6773V59.9176H7.26088V58.598H7.03709V58.845ZM6.92852 59.6217C6.85319 59.7062 6.74684 59.7485 6.6139 59.7485C6.48096 59.7485 6.36574 59.7062 6.29041 59.6194C6.21507 59.5327 6.17741 59.4103 6.17741 59.25C6.17741 59.1009 6.21507 58.983 6.29041 58.9007C6.36574 58.8161 6.47209 58.776 6.60725 58.776C6.74241 58.776 6.84211 58.8205 6.92409 58.9118C7.00607 59.003 7.04596 59.1232 7.04596 59.2723C7.04596 59.4214 7.00829 59.5416 6.93296 59.6239L6.92852 59.6217Z" fill="#231F20"/>
<path d="M9.40347 59.5193L9.00686 58.598H8.75427L9.40569 60L10.0505 58.598H9.79786L9.40347 59.5193Z" fill="#231F20"/>
<path d="M12.0977 58.5491C11.905 58.5491 11.7477 58.6158 11.6258 58.7471C11.5039 58.8784 11.4419 59.0475 11.4419 59.2545C11.4419 59.4615 11.5039 59.6439 11.628 59.7775C11.7521 59.9088 11.9138 59.9755 12.1132 59.9755C12.2484 59.9755 12.3658 59.9466 12.47 59.8843C12.5719 59.8242 12.6561 59.7352 12.7226 59.615L12.552 59.4993C12.4966 59.595 12.4345 59.6684 12.3636 59.7152C12.2927 59.7619 12.213 59.7864 12.1243 59.7864C11.9958 59.7864 11.8895 59.7441 11.8097 59.6551C11.7299 59.5683 11.6901 59.4548 11.6901 59.3124V59.2923H12.7314V59.2478C12.7314 59.032 12.6738 58.8606 12.5608 58.736C12.4478 58.6114 12.2927 58.5491 12.1 58.5491H12.0977ZM11.6878 59.1099C11.6989 58.9986 11.741 58.9118 11.8141 58.845C11.8872 58.7783 11.9781 58.7471 12.0867 58.7471C12.2063 58.7471 12.3016 58.7783 12.3703 58.8406C12.439 58.9029 12.4788 58.9941 12.4855 59.1099H11.6856H11.6878Z" fill="#231F20"/>
<path d="M14.5749 57.6833H14.3445V59.9176H14.5749V57.6833Z" fill="#231F20"/>
<path d="M20.1075 59.359L19.5469 57.7234L18.9908 59.359L18.459 57.8079H18.1887L19.0019 59.9999L19.5492 58.3687L20.0986 59.9999L20.914 57.8079H20.6437L20.1075 59.359Z" fill="#231F20"/>
<path d="M22.6244 58.598H22.3984V59.9177H22.6244V58.598Z" fill="#231F20"/>
<path d="M22.5093 57.7991C22.4628 57.7991 22.4251 57.8147 22.3919 57.848C22.3609 57.8814 22.3431 57.9192 22.3431 57.9637C22.3431 58.0083 22.3586 58.0505 22.3919 58.0817C22.4251 58.1128 22.4628 58.1284 22.5093 58.1284C22.5558 58.1284 22.5935 58.1128 22.6267 58.0817C22.6578 58.0505 22.6733 58.0105 22.6733 57.966C22.6733 57.9215 22.6578 57.8814 22.6245 57.848C22.5913 57.8147 22.5536 57.7991 22.5093 57.7991Z" fill="#231F20"/>
<path d="M24.6252 58.0662H24.397V58.598H24.1555V58.785H24.397V59.9177H24.6252V58.785H24.8668V58.598H24.6252V58.0662Z" fill="#231F20"/>
<path d="M27.0847 58.5512C26.9805 58.5512 26.8875 58.5713 26.8099 58.6136C26.7324 58.6558 26.6637 58.7181 26.6061 58.8027V57.6833H26.3867V59.9176H26.6083V59.2366C26.6083 59.1276 26.6149 59.0497 26.626 59.0052C26.6371 58.9607 26.657 58.9206 26.6858 58.8873C26.7213 58.8428 26.7678 58.8072 26.8232 58.7827C26.8786 58.7582 26.9384 58.7471 27.0049 58.7471C27.1223 58.7471 27.2087 58.7804 27.2641 58.845C27.3195 58.9095 27.3483 59.0097 27.3483 59.1432V59.9198H27.5788V59.0208C27.5788 58.8739 27.5344 58.7582 27.448 58.6759C27.3616 58.5935 27.2398 58.5512 27.0847 58.5512Z" fill="#231F20"/>
<path d="M33.087 59.359L32.5264 57.7234L31.9703 59.359L31.4385 57.8079H31.1682L31.9836 59.9999L32.5286 58.3687L33.0781 59.9999L33.8935 57.8079H33.6232L33.087 59.359Z" fill="#231F20"/>
<path d="M35.4888 57.7991C35.4423 57.7991 35.4046 57.8147 35.3714 57.848C35.3404 57.8814 35.3226 57.9192 35.3226 57.9637C35.3226 58.0083 35.3381 58.0505 35.3714 58.0817C35.4046 58.1128 35.4423 58.1284 35.4888 58.1284C35.5353 58.1284 35.573 58.1128 35.6062 58.0817C35.6373 58.0505 35.6528 58.0105 35.6528 57.966C35.6528 57.9215 35.6373 57.8814 35.604 57.848C35.5708 57.8147 35.5331 57.7991 35.4888 57.7991Z" fill="#231F20"/>
<path d="M35.6041 58.598H35.3781V59.9177H35.6041V58.598Z" fill="#231F20"/>
<path d="M37.8175 59.161C37.7976 59.1544 37.7732 59.1477 37.74 59.1366C37.5649 59.0809 37.4785 59.0142 37.4785 58.9341C37.4785 58.8762 37.4985 58.8295 37.5406 58.7916C37.5827 58.7538 37.6359 58.736 37.7023 58.736C37.7688 58.736 37.8308 58.7516 37.884 58.785C37.935 58.8183 37.9748 58.8651 38.0014 58.9252L38.1831 58.8117C38.1477 58.7271 38.0901 58.6626 38.0081 58.6181C37.9261 58.5713 37.8286 58.5491 37.7156 58.5491C37.5782 58.5491 37.4652 58.5869 37.3788 58.6603C37.2924 58.7338 37.2503 58.8295 37.2503 58.9474C37.2503 59.1143 37.4098 59.2523 37.7289 59.3636L37.7666 59.3769C37.8419 59.4036 37.8951 59.4303 37.9261 59.4615C37.9571 59.4926 37.9726 59.5305 37.9726 59.5772C37.9726 59.6373 37.9505 59.6862 37.9039 59.7218C37.8596 59.7574 37.7998 59.7775 37.7245 59.7775C37.6491 59.7775 37.5827 59.7597 37.5273 59.7241C37.4719 59.6885 37.4254 59.6373 37.3899 59.5661L37.1971 59.6951C37.2481 59.7886 37.3168 59.8576 37.4032 59.9043C37.4896 59.951 37.5938 59.9733 37.7156 59.9733C37.8574 59.9733 37.9726 59.9355 38.0613 59.8576C38.1499 59.7797 38.1942 59.6795 38.1942 59.5549C38.1942 59.457 38.1654 59.3791 38.11 59.3213C38.0546 59.2612 37.9549 59.21 37.8109 59.1633L37.8175 59.161Z" fill="#231F20"/>
<path d="M40.5007 58.5512C40.3965 58.5512 40.3057 58.5713 40.2259 58.6136C40.1462 58.6558 40.0797 58.7181 40.0221 58.8027V57.6833H39.8027V59.9176H40.0243V59.2366C40.0243 59.1276 40.031 59.0497 40.042 59.0052C40.0531 58.9607 40.0731 58.9206 40.1019 58.8873C40.1373 58.8428 40.1838 58.8072 40.2392 58.7827C40.2946 58.7582 40.3544 58.7471 40.4231 58.7471C40.5406 58.7471 40.627 58.7804 40.6824 58.845C40.7378 58.9095 40.7666 59.0097 40.7666 59.1432V59.9198H40.997V59.0208C40.997 58.8739 40.9527 58.7582 40.8663 58.6759C40.7799 58.5935 40.658 58.5512 40.5029 58.5512H40.5007Z" fill="#231F20"/>
<path d="M43.2437 58.5491C43.051 58.5491 42.8937 58.6158 42.7718 58.7471C42.6499 58.8784 42.5879 59.0475 42.5879 59.2545C42.5879 59.4615 42.6499 59.6439 42.774 59.7775C42.8981 59.9088 43.0598 59.9755 43.2592 59.9755C43.3944 59.9755 43.5118 59.9466 43.616 59.8843C43.7179 59.8242 43.8021 59.7352 43.8686 59.615L43.698 59.4993C43.6426 59.595 43.5805 59.6684 43.5096 59.7152C43.4387 59.7619 43.359 59.7864 43.2725 59.7864C43.144 59.7864 43.0377 59.7441 42.9579 59.6551C42.8781 59.5683 42.8383 59.4548 42.8383 59.3124V59.2923H43.8796V59.2478C43.8796 59.032 43.822 58.8606 43.709 58.736C43.596 58.6114 43.4409 58.5491 43.2482 58.5491H43.2437ZM42.8338 59.1099C42.8449 58.9986 42.887 58.9118 42.9601 58.845C43.0332 58.7783 43.1241 58.7471 43.2327 58.7471C43.3523 58.7471 43.4476 58.7783 43.5185 58.8406C43.5894 58.9029 43.627 58.9941 43.6337 59.1099H42.8338Z" fill="#231F20"/>
<path d="M46.2526 59.319C46.1972 59.259 46.0975 59.2078 45.9535 59.161C45.9336 59.1544 45.9092 59.1477 45.876 59.1366C45.7009 59.0809 45.6145 59.0142 45.6145 58.9341C45.6145 58.8762 45.6345 58.8295 45.6766 58.7916C45.7187 58.7538 45.7718 58.736 45.8383 58.736C45.9048 58.736 45.9668 58.7516 46.02 58.785C46.071 58.8183 46.1108 58.8651 46.1374 58.9252L46.3191 58.8117C46.2837 58.7271 46.2261 58.6626 46.1441 58.6181C46.0621 58.5713 45.9646 58.5491 45.8516 58.5491C45.7142 58.5491 45.6012 58.5869 45.5148 58.6603C45.4284 58.7338 45.3863 58.8295 45.3863 58.9474C45.3863 59.1143 45.5458 59.2523 45.8649 59.3636L45.9026 59.3769C45.9779 59.4036 46.0311 59.4303 46.0621 59.4615C46.0931 59.4926 46.1086 59.5305 46.1086 59.5772C46.1086 59.6373 46.0865 59.6862 46.0399 59.7218C45.9956 59.7574 45.9358 59.7775 45.8605 59.7775C45.7851 59.7775 45.7187 59.7597 45.6633 59.7241C45.6079 59.6885 45.5613 59.6373 45.5259 59.5661L45.3331 59.6951C45.3841 59.7886 45.4528 59.8576 45.5392 59.9043C45.6256 59.951 45.7297 59.9733 45.8516 59.9733C45.9934 59.9733 46.1086 59.9355 46.1972 59.8576C46.2859 59.7797 46.3302 59.6795 46.3302 59.5549C46.3302 59.457 46.3014 59.3791 46.246 59.3213L46.2526 59.319Z" fill="#231F20"/>
<path d="M5.09166 51.0163H3.23269L2.48601 55.2956H1.11892L1.86561 51.0163H0L0.210491 49.8324H5.30215L5.09166 51.0163Z" fill="#231F20"/>
<path d="M6.31473 51.5393C6.85757 51.5393 7.26969 51.6572 7.54665 51.8954C7.76379 52.0823 7.87236 52.3427 7.87236 52.6765C7.87236 52.7877 7.85906 52.9101 7.83469 53.0414L7.67516 53.9293C7.57989 54.4656 7.3561 54.844 7.00602 55.0665C6.65594 55.289 6.18843 55.4003 5.6057 55.4003C5.02298 55.4003 4.59313 55.289 4.32282 55.0665C4.12119 54.8996 4.02148 54.6481 4.02148 54.3165C4.02148 54.2008 4.03478 54.0718 4.05915 53.9293L4.21868 53.0414C4.39594 52.04 5.09388 51.5393 6.31916 51.5393H6.31473ZM6.51857 53.1927C6.52965 53.1416 6.53408 53.077 6.53408 52.9991C6.53408 52.9213 6.50084 52.8345 6.43659 52.7365C6.37012 52.6409 6.25712 52.5919 6.09316 52.5919C5.92919 52.5919 5.79182 52.6453 5.68104 52.7543C5.57025 52.8634 5.49935 53.008 5.47055 53.1905L5.37306 53.7602C5.36198 53.8114 5.35755 53.8759 5.35755 53.9538C5.35755 54.0317 5.39078 54.1163 5.45504 54.2075C5.52151 54.2987 5.63451 54.3433 5.79847 54.3433C5.96243 54.3433 6.0998 54.2854 6.21059 54.1719C6.32137 54.0584 6.39227 53.9204 6.42108 53.758L6.51857 53.1883V53.1927Z" fill="#231F20"/>
<path d="M11.9559 54.1274C11.9559 54.2587 12.0224 54.3254 12.1553 54.3254C12.2883 54.3254 12.4013 54.301 12.4921 54.2498L12.4545 55.1065C12.2129 55.3046 11.9404 55.4025 11.6391 55.4025C11.0696 55.4025 10.7594 55.1822 10.7107 54.7416C10.4094 55.1822 10.0017 55.4025 9.48986 55.4025C8.97803 55.4025 8.64789 55.2868 8.49722 55.0531C8.39752 54.9063 8.34656 54.7394 8.34656 54.5524C8.34656 54.3655 8.36207 54.1941 8.39087 54.0361L8.81407 51.6461H10.0992L9.74466 53.6645C9.72915 53.7558 9.7225 53.847 9.7225 53.9382C9.7225 54.1808 9.85766 54.3032 10.1302 54.3032C10.3562 54.3032 10.5379 54.2253 10.673 54.0673L11.1029 51.6483H12.3858L11.9626 54.0384C11.9581 54.0695 11.9559 54.0985 11.9559 54.1296V54.1274Z" fill="#231F20"/>
<path d="M16.6244 52.4205C16.6244 52.5919 16.5956 52.7588 16.5379 52.9212C16.4803 53.0837 16.4227 53.2016 16.3673 53.2773L16.2854 53.3841H15.1443C15.2706 53.2684 15.3326 53.1238 15.3326 52.9524C15.3326 52.8612 15.3038 52.7877 15.2462 52.7276C15.1886 52.6698 15.1088 52.6409 15.0091 52.6409C14.8385 52.6409 14.6901 52.7276 14.5638 52.899L14.1406 55.2957H12.8555L13.498 51.6461H14.6923L14.6014 52.1535C14.8895 51.744 15.2351 51.5393 15.6428 51.5393C15.9707 51.5393 16.2145 51.6172 16.3784 51.7752C16.5424 51.931 16.6244 52.1468 16.6244 52.4205Z" fill="#231F20"/>
<path d="M18.4368 54.3232C18.552 54.3232 18.6562 54.2987 18.747 54.2475L18.7093 55.1043C18.4723 55.3023 18.2042 55.4002 17.9006 55.4002C17.442 55.4002 17.1451 55.2934 17.0099 55.082C16.9191 54.9396 16.8748 54.7905 16.8748 54.6303C16.8748 54.47 16.8858 54.3298 16.9058 54.2097L17.36 51.6461H18.6451L18.2219 54.0361C18.2175 54.0673 18.2152 54.094 18.2152 54.1207C18.2152 54.2564 18.2906 54.3254 18.4412 54.3254L18.4368 54.3232ZM17.5084 50.4088C17.5084 50.0861 17.5793 49.848 17.7234 49.6989C17.8674 49.5498 18.089 49.4741 18.3925 49.4741C18.8157 49.4741 19.0262 49.661 19.0262 50.0349C19.0262 50.3531 18.9553 50.5868 18.8113 50.7337C18.6672 50.8805 18.4435 50.954 18.1355 50.954C17.7167 50.954 17.5084 50.7715 17.5084 50.4088Z" fill="#231F20"/>
<path d="M22.9834 52.4338C22.9834 52.6007 22.9324 52.7543 22.8327 52.8967H21.5941C21.634 52.8656 21.654 52.8166 21.654 52.7454C21.654 52.6742 21.6141 52.6185 21.5321 52.574C21.4523 52.5317 21.3482 52.5095 21.2219 52.5095C20.8452 52.5095 20.6547 52.6252 20.6547 52.8589C20.6547 52.9501 20.7256 53.0146 20.8652 53.0569C21.007 53.097 21.1776 53.1304 21.3792 53.1548C21.5808 53.1793 21.7825 53.2172 21.9841 53.2639C22.1857 53.3128 22.3563 53.4063 22.4981 53.5487C22.6399 53.6912 22.7086 53.8803 22.7086 54.1184C22.7086 54.539 22.5402 54.8572 22.2057 55.0753C21.8711 55.2934 21.3836 55.4025 20.7433 55.4025C20.103 55.4025 19.6554 55.2979 19.3984 55.0909C19.1968 54.9285 19.097 54.7059 19.097 54.4233C19.097 54.3432 19.1037 54.2586 19.1192 54.1718L20.3799 54.1563C20.3689 54.2275 20.411 54.2898 20.504 54.3432C20.5971 54.3966 20.7344 54.4233 20.9161 54.4233C21.0978 54.4233 21.2285 54.4033 21.3083 54.3654C21.3881 54.3276 21.4302 54.2564 21.4302 54.1496C21.4302 54.0784 21.3593 54.0294 21.2197 54.0027C21.0779 53.976 20.9073 53.9515 20.7012 53.9315C20.4974 53.9115 20.2935 53.8781 20.0897 53.8336C19.8858 53.7891 19.713 53.6912 19.5712 53.5443C19.4294 53.3974 19.3607 53.206 19.3607 52.9679C19.3607 52.5073 19.538 52.1534 19.8925 51.9064C20.247 51.6594 20.7588 51.5348 21.4302 51.5348C22.4627 51.5348 22.9789 51.8352 22.9789 52.4383L22.9834 52.4338Z" fill="#231F20"/>
<path d="M24.9687 55.4003C24.3837 55.4003 23.965 55.269 23.708 55.0064C23.5174 54.815 23.4199 54.5569 23.4199 54.232C23.4199 54.1252 23.431 54.0117 23.4509 53.8915L23.965 50.9562L25.3476 50.3799L25.1282 51.6461H27.2132L27.0249 52.7165H24.9399L24.7892 53.5733C24.7693 53.669 24.7582 53.7557 24.7582 53.8314C24.7582 54.1496 24.9089 54.3099 25.2124 54.3099C25.3742 54.3099 25.5071 54.2409 25.6157 54.1051C25.7242 53.9694 25.7974 53.7869 25.8395 53.5599H27.0935C26.883 54.7883 26.174 55.4025 24.9709 55.4025L24.9687 55.4003Z" fill="#231F20"/>
<path d="M37.1904 51.5392C37.7332 51.5392 38.1453 51.6571 38.4223 51.8952C38.6394 52.0822 38.748 52.3425 38.748 52.6763C38.748 52.7876 38.7347 52.91 38.7103 53.0413L38.5508 53.9292C38.4555 54.4655 38.2317 54.8438 37.8816 55.0664C37.5316 55.2889 37.0641 55.4002 36.4813 55.4002C35.8986 55.4002 35.4688 55.2889 35.1962 55.0664C34.9946 54.8995 34.8949 54.648 34.8949 54.3164C34.8949 54.2007 34.9082 54.0716 34.9326 53.9292L35.0921 53.0413C35.2671 52.0399 35.9673 51.5392 37.1926 51.5392H37.1904ZM37.3942 53.1926C37.4053 53.1414 37.4097 53.0769 37.4097 52.999C37.4097 52.9211 37.3765 52.8343 37.3122 52.7364C37.2457 52.6407 37.1327 52.5918 36.9688 52.5918C36.8048 52.5918 36.6675 52.6452 36.5567 52.7542C36.4459 52.8633 36.375 53.0079 36.3462 53.1904L36.2487 53.7601C36.2376 53.8113 36.2332 53.8758 36.2332 53.9537C36.2332 54.0316 36.2664 54.1161 36.3307 54.2074C36.3949 54.2986 36.5101 54.3431 36.6741 54.3431C36.8381 54.3431 36.9754 54.2853 37.0862 54.1718C37.197 54.0583 37.2679 53.9203 37.2967 53.7579L37.3942 53.1882V53.1926Z" fill="#231F20"/>
<path d="M42.8315 54.1273C42.8315 54.2586 42.898 54.3253 43.0309 54.3253C43.1639 54.3253 43.2769 54.3008 43.3677 54.2497L43.3301 55.1064C43.0885 55.3045 42.816 55.4024 42.5147 55.4024C41.9453 55.4024 41.6351 55.1821 41.5863 54.7415C41.285 55.1821 40.8773 55.4024 40.3655 55.4024C39.8536 55.4024 39.5235 55.2867 39.3728 55.053C39.2709 54.9061 39.2222 54.7392 39.2222 54.5523C39.2222 54.3654 39.2377 54.194 39.2665 54.036L39.6897 51.646H40.9748L40.6203 53.6644C40.6048 53.7556 40.5981 53.8469 40.5981 53.9381C40.5981 54.1807 40.7333 54.3031 41.0058 54.3031C41.2318 54.3031 41.4135 54.2252 41.5486 54.0672L41.9785 51.6482H43.2636L42.8404 54.0383C42.836 54.0694 42.8337 54.0983 42.8337 54.1295L42.8315 54.1273Z" fill="#231F20"/>
<path d="M47.5 52.4204C47.5 52.5918 47.4712 52.7587 47.4136 52.9211C47.356 53.0836 47.2984 53.2015 47.243 53.2772L47.1588 53.384H46.0177C46.144 53.2683 46.206 53.1236 46.206 52.9523C46.206 52.861 46.1772 52.7876 46.1196 52.7275C46.062 52.6697 45.9822 52.6407 45.8825 52.6407C45.7119 52.6407 45.5635 52.7275 45.4372 52.8989L45.014 55.2956H43.7289L44.3714 51.646H45.5657L45.4748 52.1534C45.7629 51.7439 46.1085 51.5392 46.5162 51.5392C46.8441 51.5392 47.0879 51.6171 47.2518 51.7751C47.4158 51.9308 47.4978 52.1467 47.4978 52.4204H47.5Z" fill="#231F20"/>
<path d="M27.8136 25.8809H22.6023H18.3814L14.5416 30.267H22.2212V36.4891H26.8232V30.267H27.6009H33.4592L37.2968 25.8809H27.8136Z" fill="#231F20"/>
<path d="M26.8232 37.1835H22.2212V41.5674H26.8232V37.1835Z" fill="#231F20"/>
<path d="M22.2212 42.2595H26.8232V46.7036L22.2212 49.4763V42.2595Z" fill="#231F20"/>
<path d="M42.6409 37.1835H21.5431C16.6464 37.1679 12.4344 33.1622 12.4344 28.2197C12.4344 23.2772 16.6597 19.256 21.8755 19.256C22.5756 19.256 23.9183 19.4719 24.5764 19.6098L27.2463 15.3928C26.5794 15.3015 22.569 14.9121 21.8755 14.9121C14.1338 14.9121 7.85901 20.8694 7.85901 28.2197C7.85901 35.5701 14.2136 41.9079 21.9486 41.5674H28.5115V56.5663L33.4148 53.7913V41.5674H38.1475L42.6432 37.1835H42.6409Z" fill="#231F20"/>
<path d="M32.7103 17.0061C32.7236 16.8615 32.7369 16.7102 32.7635 16.5566C32.81 16.2473 32.892 15.9268 33.0094 15.6064C33.1335 15.2881 33.293 14.9699 33.5057 14.6784L33.5855 14.5694C33.6121 14.5338 33.6431 14.5004 33.6697 14.4648C33.7251 14.3936 33.7893 14.329 33.8492 14.26C33.9755 14.131 34.1062 14.0041 34.2502 13.8929C34.3189 13.8328 34.3942 13.7816 34.4651 13.7282C34.5405 13.677 34.6136 13.6258 34.6911 13.5791C34.7864 13.519 34.8861 13.4634 34.9858 13.4099C34.8218 13.1919 34.7487 12.8959 34.8086 12.591C34.8728 12.2683 35.0744 12.0124 35.3292 11.8834C35.5131 12.1037 35.5996 12.4174 35.5353 12.7401C35.491 12.9604 35.3824 13.1474 35.2384 13.2853C35.3736 13.223 35.5087 13.1696 35.6461 13.1184C35.7436 13.085 35.8388 13.0517 35.9363 13.0227C35.7391 12.7557 35.6505 12.3952 35.7258 12.0236C35.8056 11.6274 36.0538 11.3137 36.3662 11.1534C36.5944 11.4227 36.6985 11.8099 36.6188 12.206C36.5545 12.5198 36.3883 12.7802 36.1646 12.956C36.477 12.8714 36.7849 12.8113 37.0796 12.7713C36.9068 12.4931 36.847 12.1281 36.9467 11.7676C37.0553 11.3782 37.3256 11.0822 37.6513 10.9465C37.8573 11.2336 37.9349 11.6252 37.8263 12.0147C37.7377 12.3329 37.5405 12.5888 37.2946 12.7446C37.5206 12.7201 37.7377 12.7045 37.9438 12.6978C38.0789 12.6934 38.2074 12.6912 38.3293 12.6912C38.1144 12.3707 38.039 11.9434 38.1587 11.5206C38.2828 11.08 38.5863 10.7462 38.9541 10.5927C39.189 10.9153 39.2754 11.3604 39.1513 11.801C39.0361 12.2083 38.768 12.5243 38.4356 12.6912C38.7547 12.6956 39.025 12.7134 39.2355 12.7312C39.5457 12.7601 39.723 12.7913 39.723 12.7913V12.8091C39.723 12.8091 39.5435 12.7824 39.2333 12.7624C39.0139 12.749 38.7259 12.7379 38.3891 12.7446C38.7414 12.9048 39.0317 13.2297 39.1513 13.657C39.2754 14.0976 39.1868 14.5427 38.9541 14.8653C38.5863 14.7118 38.2828 14.378 38.1587 13.9374C38.0368 13.5056 38.121 13.0672 38.3448 12.7446C38.2185 12.7468 38.0856 12.7535 37.9482 12.7624C37.7 12.7779 37.4319 12.8069 37.1528 12.8492C37.4652 12.9894 37.7222 13.2787 37.8285 13.657C37.9371 14.0464 37.8596 14.4403 37.6535 14.7251C37.3278 14.5894 37.0597 14.2934 36.9489 13.904C36.8426 13.5234 36.9135 13.1385 37.1107 12.8558C37.1062 12.8558 37.0996 12.8558 37.0951 12.8581C36.796 12.907 36.4814 12.9738 36.1646 13.0672C36.1269 13.0784 36.087 13.0917 36.0493 13.1029C36.3529 13.2275 36.6121 13.4901 36.7406 13.8417C36.878 14.2222 36.8293 14.6205 36.6454 14.921C36.3108 14.8097 36.0205 14.536 35.8832 14.1554C35.7547 13.7994 35.7879 13.43 35.9452 13.1362C35.8588 13.1652 35.7746 13.1963 35.6882 13.2275C35.5309 13.2898 35.3713 13.3565 35.2185 13.4367C35.1852 13.4545 35.152 13.4723 35.1187 13.4901C35.347 13.5969 35.5397 13.8016 35.6372 14.0709C35.748 14.3802 35.7103 14.7029 35.5597 14.9477C35.2871 14.8564 35.0523 14.6339 34.9393 14.3246C34.8462 14.0709 34.8573 13.8061 34.9481 13.5835C34.8861 13.6191 34.8263 13.657 34.7665 13.6948C34.6911 13.7415 34.6224 13.7927 34.5515 13.8439C34.4828 13.8973 34.4119 13.9485 34.3455 14.0063C34.2103 14.1176 34.0885 14.2422 33.9688 14.3691C33.9134 14.4358 33.8536 14.4981 33.8026 14.5694C33.776 14.6027 33.7494 14.6361 33.7229 14.6717L33.6497 14.7785C33.4548 15.0612 33.3041 15.3683 33.1911 15.6731C33.0737 15.978 32.9961 16.2896 32.9407 16.5855C32.8853 16.8837 32.8565 17.1686 32.8432 17.4334C32.8344 17.5647 32.8344 17.6938 32.8299 17.8139C32.8277 17.9341 32.8299 18.0498 32.8322 18.1589C32.841 18.3747 32.8499 18.5639 32.8632 18.7196C32.872 18.8754 32.8898 18.9978 32.8964 19.0802C32.9053 19.1625 32.9075 19.207 32.9075 19.207H32.8898C32.8898 19.207 32.8809 19.1669 32.8632 19.0846C32.8477 19.0023 32.8211 18.8821 32.7989 18.7263C32.7878 18.6484 32.7701 18.5639 32.759 18.4682C32.748 18.3747 32.7369 18.2723 32.7258 18.1633C32.7081 17.9452 32.6903 17.6982 32.6948 17.4267C32.6948 17.291 32.7036 17.1508 32.7103 17.0039V17.0061Z" fill="#231F20"/>
<path d="M34.2236 14.0553C34.2258 14.0153 34.2657 13.8462 34.3122 13.6525C34.3166 13.6014 34.3211 13.5502 34.3211 13.499C34.3211 13.3855 34.3078 13.2698 34.2834 13.1585C34.2391 12.9582 34.1571 12.7669 34.0419 12.5977C34.002 12.5399 33.9555 12.482 33.909 12.4308C33.8115 12.324 33.7007 12.2328 33.581 12.1571C33.3329 12.0013 33.0404 11.9168 32.7479 11.9168C32.553 11.9168 32.3668 11.9524 32.194 12.0169C31.8705 12.1393 31.598 12.3641 31.4163 12.6511C30.6497 12.8447 29.9606 13.2386 29.4133 13.7749C28.6866 13.4256 27.9975 13.0094 27.3505 12.5376C27.2242 12.4442 27.0979 12.3507 26.9761 12.2528C26.3933 11.7944 25.8483 11.287 25.3497 10.7396C23.1939 8.36956 21.88 5.21623 21.88 1.7558C21.88 1.15941 21.9199 0.574141 21.9952 0C21.9952 0 20.2005 1.95609 21.2419 3.87434C21.2507 3.88769 21.2596 3.90327 21.2662 3.91662C21.295 3.96113 21.3172 4.00119 21.3416 4.04124C21.3726 4.0902 21.408 4.14138 21.4435 4.19034C21.4479 4.19702 21.4546 4.20592 21.459 4.21037C21.5077 4.28158 21.5365 4.32386 21.5365 4.32386C21.5365 4.32386 21.4989 4.29938 21.4346 4.25043C21.4036 4.22595 21.3637 4.19702 21.3194 4.15919C21.2751 4.12358 21.233 4.07017 21.1842 4.01676C21.1599 3.99006 21.1333 3.96113 21.1089 3.92998C21.0845 3.8966 21.0624 3.86099 21.038 3.82316C20.9893 3.74972 20.9361 3.67406 20.8962 3.57837C20.874 3.53386 20.8519 3.48713 20.8297 3.4404C20.8076 3.39367 20.7921 3.34248 20.7743 3.2913C20.7566 3.24012 20.7389 3.18893 20.7234 3.13552L20.6835 2.97307C20.6547 2.86626 20.6458 2.75276 20.6281 2.64372C20.617 2.53468 20.6104 2.42564 20.6082 2.32104C20.6082 2.2209 20.6082 2.12521 20.6148 2.03397C20.5306 2.20088 20.4597 2.37445 20.3822 2.5458C20.0963 3.27795 19.733 4.66434 20.4553 5.83043C20.4885 5.88606 20.5262 5.93724 20.5616 5.9862C20.5993 6.03961 20.6414 6.09302 20.6835 6.14643C20.6968 6.15978 20.7079 6.17536 20.7212 6.18648C20.7566 6.22209 20.7854 6.2577 20.8164 6.29108C20.8541 6.32891 20.894 6.36896 20.9339 6.4068C20.9405 6.41347 20.9494 6.42015 20.9538 6.42682C21.0136 6.48246 21.0469 6.51806 21.0469 6.51806C21.0469 6.51806 21.007 6.50248 20.9361 6.47356C20.9006 6.45798 20.8585 6.44018 20.8098 6.4157C20.761 6.39122 20.7123 6.35116 20.6547 6.3111C20.6259 6.29108 20.5971 6.26882 20.5661 6.24657C20.5373 6.21986 20.5107 6.19094 20.4797 6.16201C20.422 6.10192 20.3578 6.04184 20.3046 5.9595C20.2758 5.92167 20.2492 5.88161 20.2204 5.84155C20.1916 5.8015 20.1695 5.75477 20.1429 5.70803C20.1185 5.6613 20.0919 5.61679 20.0698 5.56784L20.0055 5.41874C19.9612 5.32082 19.9346 5.21178 19.9014 5.10941C19.8726 5.00482 19.8504 4.90023 19.8327 4.79786C19.8149 4.6955 19.8017 4.59536 19.7928 4.49967C19.7861 4.43958 19.7817 4.3795 19.7817 4.32386C19.7817 4.29271 19.7817 4.18812 19.7817 4.16809C19.7684 4.21037 19.7596 4.25488 19.7485 4.29938C19.6222 4.83569 19.0284 7.77984 20.9272 8.84801C20.9272 8.84801 20.9294 8.84801 20.9317 8.84801C20.9361 8.84801 20.9339 8.85023 20.9383 8.85246C20.9516 8.85913 20.9605 8.87026 20.9738 8.87694C20.9738 8.87694 20.9671 8.87694 20.9649 8.87694C20.9782 8.89252 20.9738 8.90364 20.925 8.90142C20.8873 8.89919 20.843 8.89697 20.7921 8.89029C20.7411 8.88361 20.6835 8.86359 20.6215 8.84578C20.5904 8.83688 20.5572 8.82576 20.524 8.81463C20.4907 8.79905 20.4575 8.78125 20.4243 8.76344C20.3556 8.72784 20.2802 8.69223 20.2138 8.63215C20.1783 8.60544 20.1429 8.57651 20.1074 8.54981C20.072 8.52088 20.0387 8.48528 20.0055 8.44967C19.9723 8.41406 19.9368 8.38068 19.9058 8.34285L19.8127 8.22268C19.7507 8.14257 19.7019 8.04911 19.6466 7.96232C19.5978 7.87108 19.5535 7.77761 19.5136 7.68637C19.4759 7.59291 19.4405 7.50389 19.4139 7.41265C19.4073 7.3904 19.4028 7.3726 19.3962 7.35034C19.374 7.29249 19.3497 7.2324 19.3297 7.17009C19.3297 7.18122 19.3297 7.19234 19.3297 7.20347L19.3519 7.23463C19.3519 7.23463 19.1591 9.81826 21.0712 10.7106C21.1333 10.7396 21.1975 10.764 21.2596 10.7841C21.3238 10.8085 21.3881 10.833 21.4568 10.8531C21.4944 10.862 21.5321 10.8709 21.5676 10.8798C21.6318 10.8931 21.6894 10.9087 21.7448 10.9243C21.8179 10.9398 21.8933 10.9532 21.9708 10.9643C21.9752 10.9643 21.9841 10.9643 21.9885 10.9665C22.024 10.9732 22.0462 10.9777 22.0727 10.9821C22.0794 10.9821 22.086 10.9843 22.0927 10.9866C22.1303 10.9932 22.1547 10.9977 22.1547 10.9977C22.1547 10.9977 22.0927 11.0066 21.9841 11.0177C21.9287 11.0222 21.8622 11.0311 21.7847 11.0355C21.7071 11.04 21.623 11.0311 21.5277 11.0266C21.4811 11.0244 21.4302 11.02 21.3792 11.0177C21.3283 11.0111 21.2795 10.9977 21.2263 10.9866C21.12 10.9643 21.007 10.9443 20.9006 10.8998C20.8452 10.8798 20.7899 10.8597 20.7345 10.8397C20.6791 10.8197 20.6281 10.7885 20.5749 10.7618C20.5218 10.7329 20.4686 10.7062 20.4176 10.675L20.2692 10.5749C20.1695 10.5103 20.0875 10.4258 19.9989 10.3523C19.9169 10.2722 19.8438 10.1899 19.7773 10.1053C19.7573 10.0786 19.7418 10.0519 19.7219 10.0252C19.8216 10.6505 20.2537 12.4976 21.9309 12.9783C21.993 12.9961 22.0617 13.0072 22.1281 13.0228C22.1946 13.0361 22.2633 13.0495 22.3342 13.0606C22.4295 13.074 22.5292 13.0806 22.6311 13.0851C22.7064 13.0895 22.7818 13.0918 22.8593 13.0895C22.8948 13.0895 22.9258 13.094 22.9612 13.0918C22.9679 13.0918 22.9745 13.0918 22.9834 13.0918C22.9834 13.0918 22.9612 13.0984 22.928 13.1073C22.9502 13.1073 22.9701 13.1073 22.9701 13.1073C22.9701 13.1073 22.897 13.1251 22.7685 13.1518C22.7042 13.1652 22.6244 13.1808 22.5336 13.1986C22.4428 13.2142 22.3408 13.2186 22.2278 13.2253C22.1724 13.2297 22.1126 13.232 22.0528 13.2364C21.993 13.2364 21.9331 13.2297 21.8689 13.2275C21.7426 13.2208 21.6074 13.2164 21.4789 13.1874C21.4125 13.1763 21.346 13.163 21.2795 13.1496C21.2131 13.1363 21.151 13.114 21.0868 13.094C21.0225 13.0717 20.956 13.0539 20.894 13.0294L20.7123 12.9493C20.6835 12.9382 20.6569 12.9249 20.6303 12.9093C20.6392 12.9271 20.648 12.9427 20.6569 12.9605C20.7433 13.1274 20.8452 13.2854 20.9405 13.45C21.3637 14.0754 22.2943 15.1124 23.9295 15.375C23.9295 15.375 23.8564 15.3928 23.7279 15.4195C23.6636 15.4328 23.5838 15.4484 23.493 15.4662C23.4022 15.4818 23.3002 15.4862 23.1872 15.4929C23.1318 15.4974 23.072 15.4996 23.0122 15.504C22.9524 15.504 22.8925 15.4974 22.8283 15.4951C22.702 15.4885 22.5668 15.484 22.4383 15.4551C22.414 15.4506 22.3874 15.4462 22.3608 15.4417C22.846 15.9869 23.38 16.4876 23.9561 16.9349C24.3571 17.6715 24.5875 18.5261 24.5875 19.4362C24.5875 19.5831 24.5809 19.7278 24.5676 19.8702C24.5853 19.8324 24.6008 19.7945 24.6186 19.7567C24.6828 19.612 24.7471 19.4518 24.8379 19.296C24.88 19.2159 24.9243 19.1336 24.9709 19.049C25.0152 18.9645 25.0617 18.8799 25.1171 18.7953C25.1703 18.7108 25.2235 18.6262 25.2788 18.5394C25.3342 18.4526 25.3874 18.3658 25.4517 18.2835C25.5137 18.1989 25.5757 18.1144 25.6378 18.0298L25.7308 17.903L25.8306 17.7806C25.8992 17.7005 25.9657 17.6181 26.0344 17.538C26.1009 17.4557 26.1762 17.3845 26.2449 17.3066C26.3158 17.2309 26.3845 17.1553 26.4576 17.084C26.5307 17.0151 26.6038 16.9438 26.6747 16.8771C26.7456 16.8081 26.8187 16.7436 26.8919 16.6835C26.965 16.6212 27.0359 16.5611 27.1046 16.5032C27.2486 16.3942 27.3793 16.2851 27.51 16.1961C27.5743 16.1516 27.6363 16.1071 27.6962 16.0671C27.756 16.0292 27.8136 15.9914 27.869 15.958C27.9776 15.889 28.075 15.8356 28.1526 15.7911C28.2324 15.7466 28.2966 15.7155 28.3409 15.6932C28.3852 15.6709 28.4096 15.662 28.4096 15.662C28.4096 15.662 28.3875 15.6754 28.3454 15.7021C28.3033 15.7266 28.2457 15.7689 28.1681 15.82C28.0928 15.8712 28.0019 15.9335 27.9022 16.0114C27.8513 16.0493 27.7981 16.0915 27.7427 16.1338C27.6873 16.1783 27.6297 16.2251 27.5677 16.274C27.4436 16.3697 27.3217 16.4854 27.1843 16.5989C27.1201 16.659 27.0514 16.7213 26.9827 16.7858C26.914 16.8504 26.8431 16.9127 26.7767 16.9839C26.708 17.0529 26.6393 17.1219 26.5684 17.1931C26.4975 17.2643 26.4332 17.3422 26.3623 17.4156C26.2936 17.4913 26.2205 17.5647 26.1563 17.6448C26.0898 17.7249 26.0233 17.8051 25.9591 17.8852L25.8594 18.0053L25.7663 18.13C25.7043 18.2123 25.6422 18.2946 25.5802 18.377C25.5159 18.4571 25.4627 18.5439 25.4074 18.6262C25.352 18.7086 25.2966 18.7909 25.2412 18.8732C25.1836 18.9533 25.1393 19.0379 25.0905 19.118C25.0418 19.1981 24.9952 19.2782 24.9487 19.3539C24.8534 19.5052 24.7803 19.6588 24.7072 19.7968C24.6717 19.8657 24.6363 19.9325 24.6031 19.997C24.5831 20.0326 24.5654 20.066 24.5499 20.0994C24.2419 22.5584 22.9701 23.3929 20.5572 23.3929C20.3866 23.3929 20.2182 23.384 20.0542 23.364C20.4464 23.6978 21.1333 23.9181 21.6362 24.0694C22.6665 24.381 23.8564 24.2408 24.8911 23.4552C25.4339 23.0435 25.9081 22.5428 26.2914 21.9731C26.5108 21.6482 26.6991 21.3011 26.8542 20.9339C27.0381 21.0096 27.2397 21.0518 27.4502 21.0518C27.4945 21.0518 27.5344 21.0429 27.5787 21.0407C27.14 19.7901 28.8638 19.4674 28.8638 19.4674C28.9237 19.454 28.9835 19.4385 29.0411 19.4207C29.1519 19.3851 29.2604 19.3383 29.3624 19.2849C29.8609 19.0201 30.2398 18.5528 30.3838 17.992C30.3506 18.0053 30.3151 18.0209 30.2774 18.032C30.2021 18.0632 30.1157 18.0832 30.0249 18.1099C29.934 18.1277 29.8387 18.1567 29.7368 18.1678C29.6859 18.1745 29.6349 18.1834 29.5839 18.19C29.533 18.1967 29.4798 18.1989 29.4266 18.2034C29.3203 18.2145 29.2117 18.2145 29.1031 18.2167C28.9946 18.219 28.886 18.2123 28.7796 18.2078C28.6733 18.2056 28.5691 18.1923 28.4694 18.1811C28.3697 18.17 28.2722 18.1611 28.1814 18.1411C28.0906 18.1255 28.0041 18.1099 27.9244 18.0944C27.8446 18.081 27.7737 18.061 27.7095 18.0454C27.6452 18.0276 27.5898 18.0142 27.5455 18.0009C27.4547 17.9764 27.4037 17.9608 27.4037 17.9608C27.4037 17.9608 27.4569 17.9631 27.5521 17.972C27.5987 17.9764 27.6563 17.9809 27.7205 17.9875C27.7848 17.9942 27.8579 18.0031 27.9377 18.0076C28.0174 18.0142 28.1039 18.0187 28.1947 18.0276C28.2855 18.0387 28.383 18.0387 28.4805 18.0454C28.5293 18.0476 28.5802 18.0521 28.6312 18.0543C28.6821 18.0543 28.7331 18.0565 28.7863 18.0588C28.8904 18.061 28.9968 18.0676 29.1009 18.0632C29.2073 18.0632 29.3114 18.0632 29.4155 18.0543C29.4665 18.0521 29.5197 18.0498 29.5706 18.0454C29.6216 18.0409 29.6703 18.0365 29.7213 18.032C29.821 18.0254 29.9141 18.0076 30.0049 17.9964C30.0935 17.9786 30.18 17.9675 30.2553 17.9453C30.3328 17.9275 30.4015 17.9074 30.4636 17.8896C30.5145 17.8718 30.5611 17.8562 30.5987 17.8407C30.8048 17.7138 30.9998 17.5692 31.1837 17.4089C31.875 16.8059 32.3779 15.9892 32.5906 15.0634C32.6083 14.9878 32.6239 14.9099 32.6372 14.832C32.6549 14.7274 32.6704 14.6206 32.6815 14.5138C32.6815 14.5138 32.6815 14.5115 32.6815 14.5093C32.7236 14.0954 33.0714 13.7749 33.4946 13.7749C33.6963 13.7749 33.8779 13.8528 34.0197 13.9752H34.0242C34.2014 14.0932 34.228 14.1577 34.2369 14.0464L34.2236 14.0553ZM33.3285 12.9694C33.2575 12.9694 33.1999 12.8848 33.1999 12.7824C33.1999 12.6801 33.2575 12.5955 33.3285 12.5955C33.3994 12.5955 33.457 12.6801 33.457 12.7824C33.457 12.8848 33.3994 12.9694 33.3285 12.9694Z" fill="#231F20"/>
</g>
<defs>
<clipPath id="clip0_668_1920">
<rect width="47.5" height="60" fill="white"/>
</clipPath>
</defs>
</svg>
