<svg width="354" height="353" viewBox="0 0 354 353" fill="none" xmlns="http://www.w3.org/2000/svg">
<path d="M197.466 45.592C165.972 47.4101 133.892 62.2499 105.267 88.0915C73.9152 116.388 36.4229 169.675 52.5429 228.183C61.4719 260.577 83.7873 276.877 105.493 287.296C134 300.98 164.772 308.427 195.628 299.666C226.484 290.905 257.499 264.197 275.754 222.058C283.203 204.861 288.071 185.029 289.971 165.174C298.355 77.5377 244.851 42.8559 197.466 45.592Z" fill="#E6E8F5"/>
<path d="M117.743 325.733L230.843 315.853C238.493 315.183 244.203 308.383 243.533 300.733L219.963 30.9434C219.293 23.2934 212.493 17.5834 204.843 18.2534L91.7434 28.1334C84.0934 28.8034 78.3834 35.6034 79.0534 43.2534L102.623 313.043C103.293 320.693 110.093 326.403 117.743 325.733Z" fill="#009688"/>
<path d="M87.5334 122.913C89.7134 122.723 91.3334 120.783 91.1434 118.613L88.0334 82.9834C87.8434 80.8034 85.9034 79.1834 83.7334 79.3734C81.5534 79.5634 79.9334 81.5034 80.1234 83.6734L83.2334 119.303C83.4234 121.483 85.3634 123.103 87.5334 122.913Z" fill="#009688"/>
<path d="M225.656 94.8104L227.041 94.6892C228.664 94.5472 229.864 93.1164 229.722 91.4933L227.821 69.7564C227.679 68.1333 226.248 66.9327 224.625 67.0747L223.24 67.1958C221.617 67.3378 220.416 68.7687 220.558 70.3917L222.46 92.1287C222.602 93.7517 224.033 94.9524 225.656 94.8104Z" fill="#263238"/>
<path d="M230.231 131.216L228.836 131.338C227.212 131.48 225.782 130.28 225.64 128.657L223.738 106.91C223.596 105.286 224.795 103.856 226.419 103.714L227.814 103.592C229.438 103.45 230.868 104.65 231.01 106.273L232.912 128.02C233.055 129.644 231.855 131.074 230.231 131.216Z" fill="#263238"/>
<path d="M120.123 325.533L233.223 315.653C240.873 314.983 246.583 308.183 245.913 300.533L222.343 30.7434C221.673 23.0934 214.873 17.3834 207.223 18.0534L94.1234 27.9334C86.4734 28.6034 80.7634 35.4034 81.4334 43.0534L105.003 312.843C105.673 320.493 112.473 326.203 120.123 325.533Z" fill="#263238"/>
<path opacity="0.4" d="M108.983 308.713L241.263 297.153C242.703 297.023 243.763 295.763 243.643 294.323L221.223 37.7134C221.093 36.2734 219.833 35.2134 218.393 35.3334L86.1134 46.8934C84.6734 47.0234 83.6134 48.2834 83.7334 49.7234L106.153 306.333C106.283 307.773 107.543 308.833 108.983 308.713Z" fill="#009688"/>
<path opacity="0.3" d="M200.923 36.8634L184.303 302.133L156.653 304.553L173.283 39.2834L200.923 36.8634Z" fill="#009688"/>
<path opacity="0.2" d="M165.354 28.3587L137.112 30.8247C136.457 30.8818 135.973 31.4589 136.03 32.1137L136.13 33.2593C136.187 33.914 136.764 34.3984 137.419 34.3413L165.661 31.8753C166.316 31.8182 166.801 31.2411 166.743 30.5863L166.643 29.4407C166.586 28.786 166.009 28.3016 165.354 28.3587Z" fill="white"/>
<path d="M139.033 131.143H276.643C284.063 131.143 290.143 137.213 290.143 144.643V212.133C290.143 219.553 284.073 225.633 276.643 225.633H229.033L207.843 246.823L186.653 225.633H139.043C131.623 225.633 125.543 219.563 125.543 212.133V144.643C125.543 137.223 131.613 131.143 139.043 131.143H139.033Z" fill="url(#paint0_linear_3_118)"/>
<path d="M147.853 154.543V202.243C147.853 206.123 150.963 209.303 154.753 209.303H260.913C264.713 209.303 267.813 206.123 267.813 202.243V154.543C267.813 153.613 267.633 152.723 267.303 151.913C266.283 149.323 263.793 147.493 260.903 147.493H154.743C151.863 147.493 149.373 149.333 148.343 151.913C148.013 152.733 147.833 153.623 147.833 154.553L147.853 154.543Z" fill="white"/>
<path opacity="0.1" d="M148.363 151.903L199.683 174.253C204.893 176.523 210.783 176.523 215.993 174.253L267.313 151.903C266.293 149.313 263.803 147.483 260.913 147.483H154.753C151.873 147.483 149.383 149.323 148.353 151.903H148.363Z" fill="black"/>
<path d="M150.669 151.652C158.683 143.638 158.683 130.646 150.669 122.632C142.655 114.618 129.663 114.618 121.649 122.632C113.636 130.646 113.636 143.638 121.649 151.652C129.663 159.665 142.655 159.665 150.669 151.652Z" fill="#E85D66"/>
<path d="M142.32 138.324C142.32 139.836 142.156 141.152 141.828 142.272C141.508 143.384 141.06 144.304 140.484 145.032C139.916 145.76 139.24 146.304 138.456 146.664C137.68 147.016 136.84 147.192 135.936 147.192C135.032 147.192 134.192 147.016 133.416 146.664C132.648 146.304 131.98 145.76 131.412 145.032C130.844 144.304 130.4 143.384 130.08 142.272C129.76 141.152 129.6 139.836 129.6 138.324C129.6 136.804 129.76 135.488 130.08 134.376C130.4 133.264 130.844 132.344 131.412 131.616C131.98 130.888 132.648 130.348 133.416 129.996C134.192 129.636 135.032 129.456 135.936 129.456C136.84 129.456 137.68 129.636 138.456 129.996C139.24 130.348 139.916 130.888 140.484 131.616C141.06 132.344 141.508 133.264 141.828 134.376C142.156 135.488 142.32 136.804 142.32 138.324ZM139.26 138.324C139.26 137.068 139.168 136.028 138.984 135.204C138.8 134.38 138.552 133.724 138.24 133.236C137.936 132.748 137.584 132.408 137.184 132.216C136.784 132.016 136.368 131.916 135.936 131.916C135.512 131.916 135.1 132.016 134.7 132.216C134.308 132.408 133.96 132.748 133.656 133.236C133.352 133.724 133.108 134.38 132.924 135.204C132.748 136.028 132.66 137.068 132.66 138.324C132.66 139.58 132.748 140.62 132.924 141.444C133.108 142.268 133.352 142.924 133.656 143.412C133.96 143.9 134.308 144.244 134.7 144.444C135.1 144.636 135.512 144.732 135.936 144.732C136.368 144.732 136.784 144.636 137.184 144.444C137.584 144.244 137.936 143.9 138.24 143.412C138.552 142.924 138.8 142.268 138.984 141.444C139.168 140.62 139.26 139.58 139.26 138.324Z" fill="white"/>
<defs>
<linearGradient id="paint0_linear_3_118" x1="125.543" y1="246.823" x2="234.384" y2="91.9557" gradientUnits="userSpaceOnUse">
<stop stop-color="#009688"/>
<stop offset="0.25" stop-color="#55AFBC"/>
<stop offset="0.5" stop-color="#9BC7DD"/>
<stop offset="0.75" stop-color="#D6E0F1"/>
<stop offset="1" stop-color="white"/>
</linearGradient>
</defs>
</svg>
